<?xml version="1.0" encoding="UTF-8" standalone="no"?>
<!-- Created with Inkscape (http://www.inkscape.org/) -->

<svg
   width="140"
   height="140"
   id="svg4589"
   sodipodi:version="0.32"
   inkscape:version="1.2.2 (b0a8486541, 2022-12-01)"
   version="1.0"
   sodipodi:docname="start-here-kubuntu.svg"
   inkscape:output_extension="org.inkscape.output.svg.inkscape"
   inkscape:export-xdpi="36"
   inkscape:export-ydpi="36"
   xmlns:inkscape="http://www.inkscape.org/namespaces/inkscape"
   xmlns:sodipodi="http://sodipodi.sourceforge.net/DTD/sodipodi-0.dtd"
   xmlns="http://www.w3.org/2000/svg"
   xmlns:svg="http://www.w3.org/2000/svg"
   xmlns:rdf="http://www.w3.org/1999/02/22-rdf-syntax-ns#"
   xmlns:cc="http://creativecommons.org/ns#"
   xmlns:dc="http://purl.org/dc/elements/1.1/">
  <defs
     id="defs4591">
    <style
       type="text/css"
       id="current-color-scheme">
      .ColorScheme-Text {
        color:#3daee9;
      }
      </style>
  </defs>
  <sodipodi:namedview
     id="base"
     pagecolor="#ffffff"
     bordercolor="#d8d8d8"
     borderopacity="1"
     gridtolerance="10000"
     guidetolerance="10"
     objecttolerance="10"
     inkscape:pageopacity="0.0"
     inkscape:pageshadow="2"
     inkscape:zoom="2.8284271"
     inkscape:cx="30.228815"
     inkscape:cy="67.528698"
     inkscape:document-units="px"
     inkscape:current-layer="layer1"
     width="200px"
     height="200px"
     borderlayer="true"
     inkscape:showpageshadow="false"
     inkscape:window-width="1920"
     inkscape:window-height="1014"
     inkscape:window-x="0"
     inkscape:window-y="0"
     showgrid="false"
     fit-margin-top="0"
     fit-margin-left="0"
     fit-margin-right="0"
     fit-margin-bottom="0"
     inkscape:window-maximized="1"
     inkscape:pagecheckerboard="0"
     inkscape:deskcolor="#d1d1d1" />
  <metadata
     id="metadata4594">
    <rdf:RDF>
      <cc:Work
         rdf:about="">
        <dc:format>image/svg+xml</dc:format>
        <dc:type
           rdf:resource="http://purl.org/dc/dcmitype/StillImage" />
      </cc:Work>
    </rdf:RDF>
  </metadata>
  <g
     inkscape:label="Layer 1"
     inkscape:groupmode="layer"
     id="layer1"
     transform="translate(-30.15625,-29.84375)">
    <path
       style="font-size:20.4884px;font-family:TrebuchetMS-Bold;fill:currentColor;fill-opacity:1;fill-rule:evenodd;stroke:none;stroke-width:5;stroke-miterlimit:4"
       d="m 100.1552,29.843752 c -38.65915,0 -69.998951,31.339061 -69.998951,69.997883 0,38.658465 31.339801,70.002115 69.998951,70.002115 38.6601,0 70.00105,-31.34365 70.00105,-70.002115 0,-38.658822 -31.34095,-69.997883 -70.00105,-69.997883 z m -4.102649,16.607056 c 0.462,0.0775 0.8667,0.3847 1.05745,0.835265 l 5.571299,13.157045 c 2.96295,0.187 5.8369,0.700085 8.58655,1.504975 l 9.7284,-10.45044 c 0.4445,-0.4775 1.1601,-0.584695 1.725,-0.2585 l 8.2469,4.761655 c 0.56495,0.3262 0.83015,0.99881 0.63875,1.622465 l -4.1902,13.661211 c 2.1027,2.007549 3.9835,4.24555 5.60335,6.6725 l 14.17705,-1.75385 c 0.6475,-0.08 1.2648,0.297 1.4879,0.91005 l 3.28765,9.0341 c 0.205,0.56385 -0.005,1.19345 -0.5095,1.51995 l -21.0098,7.5633 c -0.8367,0.3015 -1.73585,-0.2455 -1.91085,-1.11725 -2.6589,-13.2451 -14.3573,-23.2219 -28.38625,-23.2219 -3.178949,0 -6.239599,0.51225 -9.101399,1.45905 -0.8433,0.279 -1.762,-0.2325 -1.91515,-1.107601 l -3.7747,-21.56954 c -0.1335,-0.76092 0.3755,-1.486185 1.13645,-1.620335 l 9.07685,-1.600035 c 0.1605,-0.0285 0.3205,-0.028 0.4745,-0.0022 z M 63.2219,61.367038 c 0.1055,-0.0125 0.2125,-0.012 0.3195,0.0022 0.1425,0.019 0.283,0.06215 0.4165,0.1303 l 17.054601,14.412065 c 0.6791,0.573901 0.6557,1.627901 -0.01,2.215301 -10.1411,8.9252 -12.93265,24.044236 -5.9184,36.193056 1.58965,2.75355 3.56395,5.1473 5.8148,7.1521 0.6635,0.5912 0.6793,1.64275 -0.0022,2.21315 l -16.7918,14.0532 c -0.5924,0.4955 -1.4752,0.4185 -1.97175,-0.173 l -5.924861,-7.06129 c -0.4195,-0.49999 -0.438,-1.22255 -0.045,-1.74315 l 8.610151,-11.4032 c -1.319451,-2.6589 -2.311851,-5.4051 -2.98965,-8.18925 l -13.9154,-3.199 c -0.63575,-0.146 -1.0863,-0.71264 -1.0863,-1.36505 v -9.523307 c 0,-0.65245 0.4505,-1.21745 1.0863,-1.364 l 13.92605,-3.20115 c 0.68725,-2.82515 1.6848,-5.573201 2.976851,-8.18925 L 56.163383,70.92567 c -0.393,-0.5206 -0.3745,-1.2434 0.045,-1.74315 l 6.180098,-7.36466 c 0.217,-0.2584 0.5183,-0.41325 0.835301,-0.45075 z m 66.5863,43.157212 c 0,-0.206 0.4175,0.002 0.6259,0.078 l 20.56765,7.51635 c 0.7257,0.265 1.0994,1.06765 0.83525,1.79335 l -3.15305,8.66135 c -0.223,0.61305 -0.8399,0.99095 -1.48685,0.9111 l -14.1803,-1.75385 c -1.6428,2.4724 -3.52535,4.70405 -5.5969,6.6832 l 4.187,13.6505 c 0.191,0.62345 -0.074,1.29655 -0.63875,1.6225 l -8.24795,4.76165 c -0.56495,0.3265 -1.2804,0.219 -1.725,-0.2585 l -9.7348,-10.459 c -2.79015,0.81705 -5.6681,1.3275 -8.5802,1.51675 l -5.570199,13.15385 c -0.2545,0.601 -0.8891,0.9463 -1.5317,0.8331 l -9.46775,-1.66945 c -0.5901,-0.1045 -1.0311,-0.6028 -1.0617,-1.20165 l 3.95415,-21.9754 c 0.1575,-0.875 1.0815,-1.3813 1.92365,-1.09695 12.800149,4.31975 27.289399,-0.82345 34.303599,-12.97225 1.5898,-2.7535 2.6768,-5.6591 3.28765,-8.61115 0.135,-0.65255 1.2903,-0.56585 1.2903,-1.18345 z"
       id="path2445"
       class="ColorScheme-Text"
       inkscape:connector-curvature="0" />
  </g>
</svg>
